<!-- This is a placeholder SVG icon for the extension -->
<svg xmlns="http://www.w3.org/2000/svg" viewBox="0 0 128 128" width="128" height="128">
  <rect width="128" height="128" fill="#4a6fa5" rx="20" />
  <path d="M64 30c-18.8 0-34 15.2-34 34s15.2 34 34 34 34-15.2 34-34-15.2-34-34-34zm-3.4 61c-13.4-1.7-23.8-13.1-23.8-27 0-2.1.2-4.1.7-6.1l13.6 13.6v3.4c0 3.7 3.1 6.8 6.8 6.8v9.3h2.7zm23.5-8.6c-.9-2.8-3.4-4.7-6.5-4.7h-3.4v-10.2c0-1.9-1.5-3.4-3.4-3.4H37.4v-6.8h6.8c1.9 0 3.4-1.5 3.4-3.4v-6.8h6.8c3.8 0 6.8-3.1 6.8-6.8v-1.4c10 4.1 17 13.8 17 25.2.1 7-2.6 13.4-7.1 18.3z" fill="#fff" />
</svg>
